<img src="{{ url_for('static', filename='images/chef.gif') }}" alt="BiteBook Logo" height="40"><?xml version="1.0" encoding="UTF-8"?>
<svg width="800px" height="800px" viewBox="0 0 800 800" version="1.1" xmlns="http://www.w3.org/2000/svg">
    <g stroke="none" stroke-width="1" fill="none" fill-rule="evenodd">
        <path d="M400,100 C250,100 150,200 150,350 C150,450 200,500 250,550 L250,650 C250,680 270,700 300,700 L500,700 C530,700 550,680 550,650 L550,550 C600,500 650,450 650,350 C650,200 550,100 400,100 Z" fill="#002366"/>
        <path d="M300,150 C250,150 200,200 200,300 C200,350 220,380 250,400 L250,450 C250,465 260,475 275,475 L375,475 C390,475 400,465 400,450 L400,400 C430,380 450,350 450,300 C450,200 400,150 300,150 Z" fill="#E6F3FF"/>
        <circle cx="300" cy="300" r="30" fill="#FF6B6B"/>
        <circle cx="500" cy="300" r="30" fill="#FF6B6B"/>
        <path d="M350,400 C350,420 370,440 400,440 C430,440 450,420 450,400" stroke="#002366" stroke-width="20" stroke-linecap="round"/>
    </g>
</svg>
